<svg xmlns="http://www.w3.org/2000/svg" width="512" height="512" viewBox="0 0 512 512">
  <rect width="512" height="512" fill="#ffffff"/>
  <rect x="32" y="32" width="448" height="448" rx="20" fill="#ffffff" stroke="#111111" stroke-width="16"/>
  <rect x="64" y="64" width="96" height="96" fill="#111111"/>
  <rect x="80" y="80" width="64" height="64" fill="#ffffff"/>
  <rect x="96" y="96" width="32" height="32" fill="#111111"/>
  <rect x="352" y="64" width="96" height="96" fill="#111111"/>
  <rect x="368" y="80" width="64" height="64" fill="#ffffff"/>
  <rect x="384" y="96" width="32" height="32" fill="#111111"/>
  <rect x="64" y="352" width="96" height="96" fill="#111111"/>
  <rect x="80" y="368" width="64" height="64" fill="#ffffff"/>
  <rect x="96" y="384" width="32" height="32" fill="#111111"/>
  <rect x="208" y="80" width="16" height="16" fill="#111111"/>
  <rect x="240" y="80" width="16" height="16" fill="#111111"/>
  <rect x="272" y="80" width="16" height="16" fill="#111111"/>
  <rect x="224" y="112" width="16" height="16" fill="#111111"/>
  <rect x="256" y="112" width="16" height="16" fill="#111111"/>
  <rect x="208" y="144" width="16" height="16" fill="#111111"/>
  <rect x="240" y="144" width="16" height="16" fill="#111111"/>
  <rect x="272" y="144" width="16" height="16" fill="#111111"/>
  <rect x="208" y="208" width="16" height="16" fill="#111111"/>
  <rect x="240" y="208" width="16" height="16" fill="#111111"/>
  <rect x="272" y="208" width="16" height="16" fill="#111111"/>
  <rect x="304" y="208" width="16" height="16" fill="#111111"/>
  <rect x="336" y="208" width="16" height="16" fill="#111111"/>
  <rect x="368" y="208" width="16" height="16" fill="#111111"/>
  <rect x="208" y="240" width="16" height="16" fill="#111111"/>
  <rect x="272" y="240" width="16" height="16" fill="#111111"/>
  <rect x="336" y="240" width="16" height="16" fill="#111111"/>
  <rect x="400" y="240" width="16" height="16" fill="#111111"/>
  <rect x="208" y="272" width="16" height="16" fill="#111111"/>
  <rect x="240" y="272" width="16" height="16" fill="#111111"/>
  <rect x="304" y="272" width="16" height="16" fill="#111111"/>
  <rect x="368" y="272" width="16" height="16" fill="#111111"/>
  <rect x="400" y="272" width="16" height="16" fill="#111111"/>
  <rect x="208" y="304" width="16" height="16" fill="#111111"/>
  <rect x="272" y="304" width="16" height="16" fill="#111111"/>
  <rect x="336" y="304" width="16" height="16" fill="#111111"/>
  <rect x="400" y="304" width="16" height="16" fill="#111111"/>
  <rect x="208" y="336" width="16" height="16" fill="#111111"/>
  <rect x="240" y="336" width="16" height="16" fill="#111111"/>
  <rect x="272" y="336" width="16" height="16" fill="#111111"/>
  <rect x="304" y="336" width="16" height="16" fill="#111111"/>
  <rect x="336" y="336" width="16" height="16" fill="#111111"/>
  <rect x="368" y="336" width="16" height="16" fill="#111111"/>
  <rect x="400" y="336" width="16" height="16" fill="#111111"/>
  <text x="256" y="474" text-anchor="middle" font-family="Arial, Helvetica, sans-serif" font-size="18" fill="#111111">Dummy QR Preview</text>
</svg>
